<svg viewBox="0 0 94 74" xmlns="http://www.w3.org/2000/svg">
  <g fill="#18281D" fill-rule="evenodd">
    <path d="M28.475 26.13c3.223 0 5.875 2.633 5.875 5.834-.036 3.452-2.782 5.87-5.875 5.836H12.658c-2.445.035-2.445-3.626 0-3.591h15.817c1.27 0 2.26-.984 2.26-2.245 0-1.26-.99-2.244-2.26-2.244h-1.349c-2.444.036-2.444-3.625 0-3.59h1.35zM35.706 1.89c3.222 0 5.875 2.635 5.875 5.836-.036 3.479-2.951 5.868-5.875 5.835H16.294c-2.444.036-2.444-3.625 0-3.591h19.412c1.266 0 2.26-.982 2.26-2.244 0-1.262-.994-2.245-2.26-2.245h-3.157c-2.444.036-2.444-3.625 0-3.59h3.157zM9.014 9.97a1.81 1.81 0 0 1 1.587.89c.329.56.329 1.251 0 1.81-.329.56-.935.9-1.587.89H1.833a1.81 1.81 0 0 1-1.587-.89 1.785 1.785 0 0 1 0-1.81c.329-.559.935-.9 1.587-.89h7.181z"/>
    <path d="M19.86 26.13a1.81 1.81 0 0 1 1.587.89c.329.559.329 1.25 0 1.81-.328.559-.935.9-1.587.89h-1.758a1.81 1.81 0 0 1-1.587-.89 1.785 1.785 0 0 1 0-1.81c.329-.56.935-.9 1.587-.89h1.758zM3.617 20.741c0-.991.81-1.795 1.808-1.795.999 0 1.808.804 1.808 1.795 0 .992-.81 1.796-1.808 1.796a1.802 1.802 0 0 1-1.808-1.796zM27.091 18.947a1.81 1.81 0 0 1 1.587.89c.329.56.329 1.252 0 1.81-.329.56-.935.9-1.587.891H12.68a1.81 1.81 0 0 1-1.587-.89 1.785 1.785 0 0 1 0-1.81c.329-.56.935-.9 1.587-.89h14.412zM68.67 55.751c-.48.008-.937.204-1.27.546a1.79 1.79 0 0 0-.51 1.278v14.314c-.009.648.334 1.25.897 1.576.563.326 1.259.326 1.822 0 .563-.326.905-.928.896-1.576V57.575a1.79 1.79 0 0 0-.529-1.298 1.814 1.814 0 0 0-1.307-.526z"/>
    <path d="M68.589.098a1.811 1.811 0 0 0-1.356.736l-14.461 19.75a1.785 1.785 0 0 0-.149 1.87c.309.602.93.98 1.61.98h3.538L47.384 36.698a1.786 1.786 0 0 0-.196 1.89 1.809 1.809 0 0 0 1.622 1.007h7.086l-12.113 15.04a1.786 1.786 0 0 0-.215 1.897c.301.621.933 1.016 1.627 1.017h47c.694 0 1.326-.396 1.627-1.017.3-.62.217-1.358-.215-1.897l-12.114-15.04h7.086c.69-.001 1.32-.392 1.623-1.007a1.786 1.786 0 0 0-.196-1.89L79.619 23.435h3.537c.68 0 1.302-.38 1.61-.981a1.785 1.785 0 0 0-.148-1.87L70.157.834a1.813 1.813 0 0 0-1.568-.736zm.106 4.846l10.91 14.9h-3.68c-.69 0-1.321.39-1.625 1.007a1.786 1.786 0 0 0 .2 1.893l10.383 13.259h-7.15c-.695 0-1.329.395-1.63 1.017a1.786 1.786 0 0 0 .218 1.9l12.11 15.037H48.96l12.11-15.037c.434-.539.519-1.277.218-1.9a1.809 1.809 0 0 0-1.63-1.017h-7.15l10.384-13.26a1.786 1.786 0 0 0 .199-1.892 1.809 1.809 0 0 0-1.626-1.007h-3.679l10.91-14.9z"/>
    <path d="M57.874 19.844a1.81 1.81 0 0 0-1.587.89 1.785 1.785 0 0 0 0 1.81c.329.56.935.9 1.587.89h19.835a1.81 1.81 0 0 0 1.586-.89c.329-.559.329-1.25 0-1.81a1.81 1.81 0 0 0-1.586-.89H57.874zM56.066 36.003a1.81 1.81 0 0 0-1.587.89 1.785 1.785 0 0 0 0 1.81c.329.56.935.9 1.587.89h25.258a1.81 1.81 0 0 0 1.586-.89c.329-.56.329-1.25 0-1.81a1.81 1.81 0 0 0-1.586-.89H56.066z"/>
  </g>
</svg>