<svg viewBox="0 0 82 116" xmlns="http://www.w3.org/2000/svg">
  <g fill="#18281D" fill-rule="evenodd">
    <path d="M51.827.313c-.054 0-.108.002-.16 0 0 0-6.447.415-11.213 2.895-4.436 2.308-9.967 6.316-14.067 12.043-4.106 5.735-7.835 14.598-8.609 21.595-.402 3.641.322 7.867 1.1 11.304-1.342-1.36-2.827-2.847-3.332-3.825-.69-1.336-1.314-4.27-1.63-6.726-.318-2.456-.407-4.472-.407-4.472-.085-1.992-2.843-2.393-3.485-.507 0 0-.918 2.662-1.806 6.064s-1.786 7.502-1.652 10.825c.248 6.127 2.053 13.437 5.46 18.516 3.344 4.987 7.645 7.552 12.541 10.065 4.935 2.532 10.99 5.106 17.658 4.93 6.76-.177 14.724-3.52 19.505-6.592 4.639-2.98 6.856-5.507 9.12-9.67 2.298-4.23 4.635-10.225 3.779-15.791-.84-5.465-4.39-10.252-8.014-13.283-3.168-2.651-4.157-4.24-4.52-7.177-.161-1.298.02-3.686.286-5.628.267-1.941.588-3.472.588-3.472.299-1.446-1.163-2.62-2.498-2.007 0 0-3.872 1.68-6.292 3.923-2.118 1.962-4.52 4.581-5.788 8.05-.409 1.118-.911 3.317-.686 5.148-.222-.502-.534-1.733-.672-2.225-1.475-4.668-1.52-6.97-.623-12.973.373-2.366 2.13-7.16 3.793-11.15 1.664-3.99 3.22-7.29 3.22-7.29.561-1.187-.289-2.56-1.596-2.577v.007zm-3.142 4.43c-.62 1.37-.863 1.83-1.785 4.043-1.7 4.075-3.521 8.745-4.031 11.98-.927 5.874-.322 10.804.72 14.516 1.14 4.056 4.137 7.635 4.137 7.635 1.1 1.36 3.288.497 3.177-1.254 0 0-.094-1.556-.063-3.472.032-1.917.258-4.238.63-5.254.905-2.476 3.254-5.22 5.13-6.959.654-.606 1.24-.79 2.226-1.366-.273 2.024-.531 4.373-.287 6.346.462 3.737 2.277 6.576 5.78 9.508 3.05 2.55 6.122 6.854 6.768 11.057.631 4.103-1.311 9.69-3.387 13.509-2.112 3.885-3.557 5.569-7.902 8.36-4.202 2.7-12.083 5.882-17.671 6.029-5.683.151-11.194-2.102-15.936-4.536-4.781-2.453-8.322-4.578-11.198-8.867-2.814-4.195-4.621-11.153-4.843-16.65-.078-1.91.342-4.18.938-6.856.317 1.429.673 2.307 1.28 3.483 1.151 2.23 3.304 4.352 5.207 6.106a62.501 62.501 0 0 0 3.57 3.05c1.402 1.101 3.37-.304 2.799-2.001 0 0-.827-2.46-1.568-5.726-.74-3.265-1.356-7.34-1.043-10.177.664-6.006 4.307-14.766 7.965-19.876 3.663-5.117 8.805-8.869 12.808-10.952 2.455-1.278 4.48-1.358 6.578-1.676zM5.433 16.375c-2.756 0-5.025 2.29-5.025 5.064 0 2.772 2.269 5.064 5.025 5.064 2.87 0 4.94-2.518 4.94-5.233 0-2.716-2.299-4.895-4.94-4.895zm0 3.606c.93 0 1.357.405 1.357 1.289 0 .883-.655 1.627-1.357 1.627-.817 0-1.442-.632-1.442-1.458 0-.827.625-1.458 1.442-1.458zM24.021.306c-2.755 0-5.025 2.291-5.025 5.064s2.27 5.064 5.025 5.064c2.87 0 4.941-2.517 4.941-5.233 0-2.716-2.3-4.895-4.94-4.895zm0 3.606c.93 0 1.358.405 1.358 1.289 0 .883-.655 1.627-1.358 1.627-.816 0-1.442-.632-1.442-1.458s.626-1.458 1.442-1.458zM64.11 3.158c-2.756 0-5.025 2.29-5.025 5.064 0 2.772 2.27 5.063 5.025 5.063 2.87 0 4.94-2.517 4.94-5.232 0-2.716-2.299-4.895-4.94-4.895zm0 3.606c.93 0 1.357.405 1.357 1.289 0 .883-.655 1.626-1.357 1.626-.817 0-1.442-.631-1.442-1.457 0-.827.625-1.458 1.442-1.458zM76.651 22.01c-2.755 0-5.025 2.29-5.025 5.063 0 2.773 2.27 5.064 5.025 5.064 2.87 0 4.941-2.517 4.941-5.233 0-2.716-2.299-4.895-4.94-4.895zm0 3.605c.93 0 1.358.405 1.358 1.29 0 .883-.655 1.626-1.358 1.626-.816 0-1.441-.632-1.441-1.458s.625-1.458 1.441-1.458z"/>
    <path d="M19.626 72.247S8.907 85.424 3.018 90.757c-1.45 1.313-1.488 3.264-1.134 4.782a9.298 9.298 0 0 0 1.988 3.937 9.764 9.764 0 0 0 3.73 2.634c.75.296 1.555.504 2.436.472.88-.036 1.88-.366 2.61-1.099 6.187-6.205 18.806-21.298 18.806-21.298l-2.744-2.324S15.961 93.07 10.115 98.934c-.033.036-.007.043-.203.05-.196 0-.57-.058-.994-.223-.847-.336-1.867-1.097-2.344-1.648-.456-.527-1.01-1.558-1.204-2.395-.195-.837-.054-1.195.042-1.282 6.442-5.833 16.986-18.904 16.986-18.904l-2.772-2.285z"/>
    <path d="M5.307 90.144l-1.064 3.444s.84.267 1.826.683c.987.415 1.95 1.205 2.163 1.43.253.267 1.075 1.41 1.463 2.493a25.13 25.13 0 0 1 .623 2.008l3.471-.888s-.27-1.074-.72-2.338c-.452-1.264-1.14-2.596-2.233-3.754-1.053-1.115-2.22-1.793-3.38-2.282-1.162-.49-2.15-.796-2.15-.796zM63.466 72.135l-2.779 2.282s10.55 13.07 16.993 18.903c.096.087.237.445.042 1.282-.195.837-.748 1.868-1.204 2.395-.477.552-1.497 1.311-2.344 1.648-.424.17-.798.23-.994.223-.196 0-.172-.036-.203-.05-5.846-5.864-18.595-21.073-18.595-21.073l-2.744 2.324s12.618 15.093 18.806 21.298c.73.733 1.73 1.068 2.61 1.1.88.035 1.686-.174 2.436-.472a9.769 9.769 0 0 0 3.73-2.635 9.3 9.3 0 0 0 1.988-3.937c.353-1.517.316-3.469-1.134-4.782-5.89-5.332-16.608-18.51-16.608-18.51v.004z"/>
    <path d="M77.785 90.031s-.987.307-2.148.796c-1.162.49-2.18 1.293-3.232 2.408-1.094 1.159-1.93 2.364-2.381 3.628a27.987 27.987 0 0 0-.721 2.338l3.471.888s.235-.923.623-2.007c.387-1.085 1.358-2.1 1.611-2.367.213-.224 1.028-1.141 2.014-1.556a24.203 24.203 0 0 1 1.827-.684l-1.064-3.444zM45.556 80.009s-.096 22.542-.434 30.968c-.002.043.022.036-.119.177-.14.14-.45.35-.875.514-.848.332-2.111.473-2.834.395-.69-.076-1.79-.457-2.499-.937-.708-.48-.844-.835-.832-.965.785-8.624.49-29.342.49-29.342l-3.584.044s.252 20.968-.476 28.968c-.178 1.955 1.117 3.417 2.4 4.29a9.179 9.179 0 0 0 4.116 1.527c1.414.156 3.012-.036 4.514-.62.751-.295 1.482-.691 2.107-1.316.625-.626 1.134-1.549 1.176-2.585.347-8.656.434-31.102.434-31.102l-3.584-.016z"/>
    <path d="M41.84 106.449c-1.525-.098-2.877.05-4.06.485-1.182.435-2.12.888-2.12.888l1.554 3.254s.794-.384 1.798-.754c1.005-.369 2.29-.295 2.597-.274.367.036 1.692.145 2.708.676 1.016.531 1.813 1.05 1.813 1.05l1.946-3.029s-.922-.6-2.107-1.218c-1.184-.619-2.545-.975-4.13-1.078zM35.093 42.962a1.79 1.79 0 0 0-1.547.938c-.31.57-.291 1.264.05 1.816 0 0 .742 1.2 1.574 2.747.833 1.546 1.748 3.486 2.03 4.543.386 1.449.531 2.973.3 4.296-.04.23-.307.736-.412 1.063-.007 0 0-.036-.007-.05-.757-1.642-2.122-2.916-3.325-4a33.24 33.24 0 0 0-2.274-1.874 1.783 1.783 0 0 0-2.01-.08 1.808 1.808 0 0 0-.818 1.848s.158.897.224 1.98c.066 1.081-.107 2.386-.189 2.555-.166.347-.627.733-1.462 1.24-.836.508-1.981 1.076-2.912 2.247-1.602 2.017-3.375 4.49-3.737 7.564-.177 1.5.246 2.833.609 4 .362 1.168.749 2.1.749 2.1a1.789 1.789 0 1 0 3.088.388 1.815 1.815 0 0 0 .215-1.797s-.332-.785-.637-1.768-.5-2.236-.469-2.5c.22-1.863 1.498-3.866 2.982-5.733.31-.391 1.032-.842 1.966-1.409.934-.567 2.144-1.312 2.842-2.768.39-.816.246-1.55.287-2.331.662.705 1.457 1.498 1.623 1.86.167.36.395 1.785.427 2.957.033 1.173-.028 2.135-.028 2.135a1.803 1.803 0 0 0 1.263 1.835 1.787 1.787 0 0 0 2.068-.807s.721-1.238 1.505-2.825c.783-1.586 1.653-3.455 1.96-5.211.35-2.012.114-4.024-.371-5.846-.097-.36-.354-.732-.49-1.106 1.816 1.509 3.817 3.131 4.717 4.346 1.88 2.538 3.328 5.543 3.688 8.493.09.741-.148 2.574-.476 4.043-.328 1.47-.686 2.634-.686 2.634-.235.766.06 1.595.724 2.037.664.442 1.538.39 2.146-.128 0 0 .717-.61 1.546-1.422.83-.814 1.772-1.763 2.415-2.86.438-.746.645-1.642.938-2.507.207.478.414.803.525 1.14.836 2.538 1.833 8.727 1.833 8.727a1.801 1.801 0 0 0 1.117 1.433c.602.24 1.286.134 1.789-.277a1.81 1.81 0 0 0 .636-1.705s-.888-6.017-1.974-9.311c-.771-2.341-2.694-5.91-2.694-5.91a1.789 1.789 0 0 0-3.339.48s-.226 1.107-.595 2.457c-.107.393-.254.649-.385 1.057-.007-.108.048-.216.036-.325-.462-3.795-2.218-7.302-4.374-10.212-1.703-2.298-4.554-4.65-7.04-6.564a93.98 93.98 0 0 0-4.599-3.324 1.784 1.784 0 0 0-1.022-.303v-.006zM38.711 11.91a.89.89 0 0 0-.063 0l-4.29.577a.898.898 0 0 0-.712.55.907.907 0 0 0 .12.896.894.894 0 0 0 .83.343l4.29-.578a.9.9 0 0 0 .805-.986.898.898 0 0 0-.98-.81v.007zM36.444 14.938a.89.89 0 0 0-.154 0l-4.766.979a.898.898 0 0 0-.68.596.906.906 0 0 0 .179.89c.215.242.542.35.858.281l4.766-.978c.448-.1.75-.524.697-.983a.898.898 0 0 0-.9-.8v.015zM33.245 18.044a.891.891 0 0 0-.147.036l-4.45 1.063a.906.906 0 0 0-.468 1.51c.227.237.564.33.88.244l4.451-1.056a.901.901 0 0 0 .718-1.02.897.897 0 0 0-.983-.762v-.015zM31.286 21.467a.891.891 0 0 0-.238.05l-3.737 1.219a.905.905 0 0 0-.363 1.556c.253.22.605.279.915.155l3.738-1.218a.902.902 0 0 0-.315-1.761v-.001zM29.585 25.214a.891.891 0 0 0-.154.036l-4.045 1.063a.906.906 0 0 0-.469 1.538.892.892 0 0 0 .917.202l4.052-1.057a.901.901 0 0 0-.301-1.775v-.007zM27.961 28.482a.891.891 0 0 0-.321.079l-3.73 1.613a.904.904 0 0 0-.21 1.575c.267.194.62.225.916.08l3.737-1.613a.903.903 0 0 0-.391-1.732v-.002zM26.863 31.743a.892.892 0 0 0-.4.119l-3.975 2.169a.902.902 0 0 0-.053 1.573.891.891 0 0 0 .907.012l3.976-2.177a.904.904 0 0 0-.455-1.697zM26.583 34.849a.893.893 0 0 0-.623.252l-3.416 3.205a.906.906 0 0 0 .344 1.524c.306.095.64.019.874-.2l3.423-3.212a.906.906 0 0 0 .235-.993.896.896 0 0 0-.837-.578v.002zM26.793 38.433a.893.893 0 0 0-.616.274l-3.339 3.367a.905.905 0 0 0 .397 1.518.892.892 0 0 0 .87-.243l3.338-3.366a.906.906 0 0 0 .203-1 .896.896 0 0 0-.853-.55zM27.36 41.857a.894.894 0 0 0-.68.331l-3.023 3.613a.907.907 0 0 0-.157.889.893.893 0 1 0 1.529.274l3.016-3.614a.906.906 0 0 0 .137-.97.896.896 0 0 0-.822-.523zM57.167 38.694a.896.896 0 0 0-.778.503.906.906 0 0 0 .078.927s1.96 2.783 3.038 4.176c1.846 2.386 4.244 4.088 5.277 6.36.236.522.456 1.695.566 2.67.11.974.14 1.767.14 1.767a.903.903 0 0 0 .476.765.892.892 0 0 0 .896-.033.904.904 0 0 0 .42-.797s-.028-.86-.147-1.908c-.118-1.049-.29-2.27-.72-3.219-1.306-2.874-3.885-4.633-5.495-6.712-1.01-1.306-2.988-4.106-2.988-4.106a.894.894 0 0 0-.763-.394v.001z"/>
  </g>
</svg>