<svg viewBox="0 0 111 116" xmlns="http://www.w3.org/2000/svg">
  <g stroke="#18281D" fill="none" fill-rule="evenodd" stroke-linejoin="round">
    <g stroke-width="3.6">
      <path d="M15.106 20.228L6.35 30.656s6.484 2.663 9.83 2.3c2.595-.28 7.065-3.373 7.065-3.373l-8.14-9.355z"/>
      <path d="M10.959 32.036L3.74 39.091s9.015 3.444 13.67 3.067c3.686-.298 10.29-4.14 10.29-4.14l-7.68-6.595"/>
      <path d="M8.194 39.858l-6.297 9.201s8.39 3.004 12.748 2.914c5.252-.107 15.206-4.14 15.206-4.14L23.4 40.01"/>
      <path d="M11.866 51.347l-.216 8.73 6.897-.489.76-8.567"/>
    </g>
    <g stroke-width="3.6">
      <path d="M95.894 20.228l8.755 10.428s-6.484 2.663-9.83 2.3c-2.595-.28-7.065-3.373-7.065-3.373l8.14-9.355z"/>
      <path d="M100.041 32.036l7.219 7.055s-9.015 3.444-13.67 3.067c-3.686-.298-10.29-4.14-10.29-4.14l7.68-6.595"/>
      <path d="M102.806 39.858l6.297 9.201s-8.39 3.004-12.748 2.914c-5.253-.107-15.206-4.14-15.206-4.14L87.6 40.01"/>
      <path d="M99.134 51.347l.215 8.73-6.896-.489-.76-8.567"/>
    </g>
    <g stroke-linecap="round" stroke-width="3.6">
      <path d="M70.533 15.81l8.398 8.76M69.852 24.723l8.776-8.684M68.717 19.772l11.349.304M74.921 13.983l-.756 12.797"/>
    </g>
    <g stroke-linecap="round" stroke-width="3.6">
      <path d="M25.99 4.91l10.153 10.541M25.166 15.635l10.61-10.45M23.794 9.677l13.72.366M31.295 2.71l-.915 15.4"/>
    </g>
    <path d="M54.548 43.81L40.864 61.378s9.768 4.729 14.987 4.554c4.489-.15 12.598-4.771 12.598-4.771L54.548 43.81z" stroke-width="3.6" stroke-linecap="round"/>
    <path d="M47.38 65.312L34.782 78.58s14.478 5.058 21.938 4.49c6.285-.48 17.594-6.532 17.594-6.532l-11.512-12.45" stroke-width="3.6" stroke-linecap="round"/>
    <path d="M42.601 81.656L31.524 94.757s16.28 5.553 24.761 5.442c7.868-.104 22.807-5.643 22.807-5.643L67.58 80.246" stroke-width="3.6" stroke-linecap="round"/>
    <path stroke-width="3.6" d="M50.692 99.712l-.27 14.205 9.122-.27.434-13.773"/>
    <path d="M53.887 51.82l-5.222 6.747M45.67 86.019l-5.683 6.441M50.124 69.763l-5.529 5.367" stroke-width="1.8" stroke-linecap="round"/>
  </g>
</svg>