<svg viewBox="0 0 67 109" xmlns="http://www.w3.org/2000/svg">
  <g stroke="#18281D" fill="none" fill-rule="evenodd">
    <path d="M52.508 23.093s-.915-4.688-1.8-6.885c-1.15-2.852-2.419-5.795-4.5-8.032-2.578-2.77-8.325-5.966-9.45-6.196M27.477 3.166s-5.141 6.013-6.975 9.484c-1.267 2.398-2.025 5.05-2.7 7.677-.342 1.33-.675 4.065-.675 4.065" stroke-width="3.6" stroke-linecap="round" stroke-linejoin="round"/>
    <path d="M36.533 1.924c5.616.238 11.41 2.128 15.975 5.42 5.129 3.698 9.456 9.123 11.475 15.128 2.565 7.632.173 16.11 0 24.162-.112 5.197 1.025 10.67-.675 15.58-1.093 3.158-4.267 5.188-5.85 8.13-2.595 4.82-2.386 11.118-5.85 15.354-3.485 4.262-8.57 7.687-13.95 8.807-4.83 1.004-10.621.633-14.625-2.258-4.384-3.166-4.93-9.645-7.425-14.452-1.488-2.867-2.875-5.79-4.5-8.58-2.163-3.714-5.781-6.709-6.975-10.84-2.361-8.168-1.092-17.113.223-25.516.976-6.232 2.27-12.73 5.625-18.064 2.238-3.558 5.535-6.583 9.225-8.58C24.442 3.38 30.59 1.672 36.533 1.923z" stroke-width="3.6"/>
    <path d="M58.506 68.762s.108 13.101.478 19.64c.237 4.214 0 8.54 1.113 12.613.585 2.16 2.864 6.068 2.864 6.068M12.527 71.795s-.274 13.031-1.114 19.48c-.478 3.664-1.022 7.366-2.227 10.858-.504 1.462-2.069 4.151-2.069 4.151M34.748 84.968l-.636 9.66M57.594 37.601s1.314 8.868-.342 12.797c-.951 2.256-2.88 4.279-5.118 5.255-2.955 1.29-6.701 1.5-9.665.228-2.69-1.155-3.202-5.41-5.913-6.512-1.69-.687-3.833-.487-5.458.343-2.328 1.189-4.321 6.055-5.004 6.055-.682 0-7.524 1.304-10.69-.343-1.897-.988-3.101-3.135-3.865-5.14-1.455-3.82-1.024-12.226-1.024-12.226 15.646-.322 31.56.296 47.079-.455V37.6z" stroke-width="3.6" stroke-linecap="round" stroke-linejoin="round"/>
    <path d="M50.42 41.977l2.983 2.635M46.363 42.855l6.642 5.35M19.595 41.752l2.983 2.634M15.538 42.63l6.642 5.348M52.804 89.532l2.185 1.015M51.29 91.089l3.935 2.2M49.273 93.153l5.884 3.25M46.953 94.71l8.675 5.01M44.095 96.335l12.172 7.582" stroke-width="1.8" stroke-linecap="round" stroke-linejoin="round"/>
  </g>
</svg>