<svg viewBox="0 0 109 116" xmlns="http://www.w3.org/2000/svg">
  <g fill="#18281D" fill-rule="evenodd">
    <path d="M87.507 19.269c-1.746 0-3.775.072-5.481.655-1.21.413-2.198 1.159-3.06 1.817-.317.242-.317.26-.555.458-.502-.274-.72-.421-1.643-.845-1.556-.717-3.372-1.518-5.271-1.529-1.983 0-3.596.805-4.977 1.522-1.38.717-2.571 1.352-3.6 1.535-1.178.209-3.423.234-5.265.17a74.254 74.254 0 0 1-3.32-.192 1.795 1.795 0 0 0-1.617.75 1.808 1.808 0 0 0-.18 1.779s.507 1.155 1.243 2.507c.736 1.352 1.616 2.899 2.857 4.008 1.936 1.73 4.322 2.514 6.436 3.099 1.887.521 4.365.734 6.478.866 1.517.094 2.127.101 2.745.112.252.432.481.773.934 1.753.66 1.432 1.14 3.252 1.08 3.776-.136 1.22-1.21 2.741-2.477 3.704-.624.474-1.85.71-3.313.93-9.642 1.455-29.762.065-30.575 0-.316-.235-.886-.67-2.036-1.409-1.419-.913-3.09-1.939-4.773-2.387-1.545-.412-3.289-.354-4.794-.274-1.504.075-2.723.234-2.723.234a1.801 1.801 0 0 0-1.572 1.86s.057 1.33.323 2.887.554 3.376 1.916 4.817c1.357 1.435 3.138 1.819 4.661 2.163.352.079.338.05.653.104-.183.565-.216.61-.435 1.374-.551 1.9-1.137 4.14-1.236 6.015-.194 3.703.45 7.393 1.503 10.825 1.219 3.974 4.53 9.419 4.948 10.114l-1.67 11.571a1.81 1.81 0 0 0 .035.655l4.45 19.601a1.797 1.797 0 0 0 2.092 1.374l4.127-.796a1.802 1.802 0 0 0 1.446-2l-2.625-20.58c.259-.403.792-1.206 1.656-2.754 1.052-1.884 2.217-4.12 2.682-6.156.55-2.408.466-5.505.309-8.142-.05-.838-.08-.83-.14-1.514 1.58.869 2.705 1.618 4.52 2.205a24.806 24.806 0 0 0 7.019 1.204c2.132.05 3.85-.366 5.559-.676a836.34 836.34 0 0 0-1.299 6.325c-.447 2.215-.89 4.448-1.214 6.183-.162.868-.295 1.61-.386 2.177-.047.285-.075.52-.097.732 0 .105-.036.199-.036.318s-.057.176.058.626c-.112-.45-.036-.14-.036.036 0 .163.036.404.043.705.036.6.057 1.44.09 2.43.068 1.979.14 4.566.212 7.134.14 5.136.258 10.191.258 10.191.012.513.24.997.63 1.33.388.334.9.485 1.406.417l4.76-.64a1.8 1.8 0 0 0 1.557-1.656s1.14-15.17 2.962-21.974c1.431-5.345 6.407-15.7 6.682-16.277.414-.23 1.405-.762 3.068-1.817 1.974-1.252 4.244-2.788 5.727-4.43 3.236-3.58 5.771-7.976 7.068-12.685 1.065-3.862 1.041-7.965.36-11.79-.678-3.8-2.314-7.326-4.197-10.487-1.052-1.763-2.249-2.876-3.384-4.085.349-.177.663-.187 1.032-.55 1.286-1.263 1.885-2.94 2.394-4.394.508-1.455.8-2.698.8-2.698.12-.515.01-1.058-.304-1.484a1.795 1.795 0 0 0-1.325-.727s-1.419-.098-3.165-.083l.002-.017zm.036 3.606c.345-.003.32 0 .625 0-.036.097-.036.083-.058.184-.44 1.257-1.186 2.69-1.51 3.007.134-.13-.43.228-.918.388-.49.162-.906.252-.906.252a1.808 1.808 0 0 0-.905 3.022s3.519 3.745 4.506 5.401c1.748 2.934 3.179 6.088 3.748 9.276.606 3.395.602 6.993-.28 10.199-1.128 4.094-3.397 8.034-6.276 11.22-.942 1.043-3.117 2.619-4.983 3.802a69.516 69.516 0 0 1-3.432 2.043 1.8 1.8 0 0 0-.758.789s-5.402 10.997-7.11 17.375c-1.926 7.192-2.748 19.448-2.872 21.179l-1.424.19c-.036-1.444-.1-4.065-.212-8.197a996.088 996.088 0 0 0-.212-7.156c-.036-.997-.069-1.85-.097-2.48 0-.313-.036-.569-.043-.774 0-.087-.036-.224-.036-.274 0 0 .003 0 0-.05 0-.112.043-.318.082-.571.08-.505.209-1.227.365-2.078.317-1.7.755-3.928 1.2-6.134.892-4.413 1.804-8.748 1.804-8.748a1.807 1.807 0 0 0-.477-1.634 1.793 1.793 0 0 0-1.621-.507s-5.306.973-7.398.923a21.236 21.236 0 0 1-6.002-1.028c-2.037-.66-6.794-3.353-6.794-3.353a1.792 1.792 0 0 0-1.9.055 1.806 1.806 0 0 0-.788 1.734s.266 2.02.414 4.522c.15 2.502.136 5.542-.223 7.12-.277 1.206-1.33 3.43-2.316 5.198-.987 1.767-1.881 3.141-1.881 3.141a1.808 1.808 0 0 0-.28 1.212l2.484 19.516-.765.148-3.987-17.573 1.699-11.783a1.808 1.808 0 0 0-.23-1.176s-3.945-6.833-4.907-9.966c-.96-3.131-1.52-6.425-1.354-9.579.06-1.186.58-3.401 1.102-5.197.52-1.796 1.017-3.22 1.017-3.22a1.809 1.809 0 0 0-.18-1.569 1.796 1.796 0 0 0-1.343-.824s-1.102-.109-2.372-.395c-1.27-.288-2.666-.94-2.843-1.127-.183-.195-.768-1.643-.99-2.944-.064-.382-.04-.384-.079-.711.324-.036.31-.036.695-.058 1.36-.069 3.03 0 3.685.162.792.21 2.458 1.103 3.755 1.937 1.297.834 2.296 1.585 2.296 1.585.275.209.603.334.947.36 0 0 20.952 1.63 31.846 0 1.385-.209 3.275-.35 4.948-1.62 1.847-1.403 3.58-3.502 3.882-6.176.237-2.115-.634-4.038-1.397-5.69-.764-1.655-1.565-2.952-1.565-2.952a1.796 1.796 0 0 0-1.503-.852s-1.627-.036-3.642-.148c-2.016-.126-4.456-.39-5.75-.747-1.948-.539-3.792-1.234-5.003-2.317-.406-.363-1.139-1.517-1.755-2.564h.259c1.941.069 4.22.094 6.015-.223 1.857-.328 3.331-1.208 4.626-1.88 1.294-.673 2.365-1.125 3.313-1.12.647.003 2.41.562 3.79 1.197a30.788 30.788 0 0 1 2.456 1.268 1.792 1.792 0 0 0 2.1-.213s.568-.504 1.312-1.07c.743-.568 1.743-1.17 2.05-1.276.803-.274 2.748-.453 4.344-.464l.012.013z"/>
    <path d="M28.59 69.317s-.27 2.092-.738 4.67c-.467 2.577-1.167 5.672-1.853 7.352-.653 1.602-2.249 4.19-3.657 6.268-1.407 2.079-2.624 3.691-2.624 3.691-.265.351-.393.787-.36 1.226l1.572 20.96a1.8 1.8 0 0 0 1.79 1.669h4.717a1.8 1.8 0 0 0 1.797-1.782l.219-17.918c.646-.536 2.485-2.04 3.776-3.394 1.664-1.745 4.177-5.12 4.177-5.12l-2.871-2.17s-2.624 3.455-3.903 4.796c-1.127 1.183-4.12 3.691-4.12 3.691-.404.339-.64.838-.646 1.367l-.204 16.924h-1.278l-1.397-18.643c.302-.403 1.078-1.43 2.323-3.268 1.464-2.16 3.126-4.751 4.015-6.93.922-2.259 1.579-5.404 2.064-8.079.485-2.675.765-4.853.765-4.853l-3.565-.457zM83.408 68.429l-5.39 24.115a1.81 1.81 0 0 0-.044.416l.205 19.094-2.906-20.432-.449-6.691-3.58.238.45 6.761a1.81 1.81 0 0 0 0 .133l3.144 22.088a1.8 1.8 0 0 0 1.776 1.55h3.37a1.806 1.806 0 0 0 1.797-1.824l-.22-20.75 5.341-23.911-3.494-.787zM22.216 16.465c-2.992 0-5.334 2.543-5.334 5.473 0 2.93 2.39 5.388 5.334 5.388 2.968 0 5.412-2.452 5.412-5.43 0-2.979-2.444-5.43-5.412-5.43zm0 3.614c1.023 0 1.811.79 1.811 1.817a1.785 1.785 0 0 1-1.81 1.817c-1.048 0-1.734-.7-1.734-1.775 0-1.074.734-1.86 1.733-1.86zM11.098 49.85c-2.944 0-5.335 2.464-5.335 5.394s2.343 5.473 5.335 5.473c2.968 0 5.412-2.452 5.412-5.43 0-2.979-2.444-5.438-5.412-5.438zm0 3.613c1.023 0 1.818.797 1.818 1.824a1.792 1.792 0 0 1-1.818 1.817c-1 0-1.734-.785-1.734-1.86 0-1.074.687-1.781 1.734-1.781zM103.539 70.282c-2.944 0-5.335 2.457-5.335 5.388 0 2.93 2.343 5.472 5.335 5.472 2.968 0 5.411-2.452 5.411-5.43 0-2.979-2.443-5.43-5.411-5.43zm0 3.613c1.023 0 1.818.79 1.818 1.817a1.791 1.791 0 0 1-1.818 1.817c-1 0-1.734-.786-1.734-1.86s.687-1.774 1.734-1.774zM.05 38.168c0-.873.673-1.675 1.542-1.675.87 0 1.574.707 1.574 1.58 0 .872-.705 1.579-1.574 1.579-.87 0-1.542-.612-1.542-1.484zM19.366 70.171c0-.872.673-1.674 1.543-1.674.869 0 1.574.707 1.574 1.58 0 .871-.705 1.579-1.574 1.579-.87 0-1.543-.612-1.543-1.485zM101.573 50.789c0-.873.673-1.674 1.543-1.674.869 0 1.574.707 1.574 1.579s-.705 1.58-1.574 1.58c-.87 0-1.543-.613-1.543-1.485zM59.614 11.486a1.796 1.796 0 0 0-1.482.835 1.809 1.809 0 0 0-.126 1.7s.498 1.16 1.186 2.55c.69 1.39 1.525 2.992 2.492 4.177.749.916 1.758 1.723 2.64 2.408.88.686 1.62 1.205 1.62 1.205.53.37 1.216.428 1.8.152a1.807 1.807 0 0 0 .244-3.124s-.67-.458-1.468-1.078c-.796-.62-1.733-1.45-2.056-1.845-.542-.664-1.415-2.206-2.057-3.5-.641-1.295-1.095-2.367-1.095-2.367a1.797 1.797 0 0 0-1.698-1.113zM69.124 14.754a1.796 1.796 0 0 0-1.337.766 1.808 1.808 0 0 0-.256 1.523l1.27 4.782a1.797 1.797 0 1 0 3.475-.93l-1.27-4.782a1.798 1.798 0 0 0-1.882-1.359zM76.558 15.071a1.8 1.8 0 0 0-1.699 1.895l.237 6.141a1.804 1.804 0 0 0 .934 1.601c.582.32 1.292.292 1.847-.072a1.805 1.805 0 0 0 .806-1.67l-.237-6.134a1.806 1.806 0 0 0-.573-1.28 1.793 1.793 0 0 0-1.315-.48zM83.619 8.922a1.795 1.795 0 0 0-1.384.675 1.808 1.808 0 0 0-.357 1.502s.19.98.345 2.211c.154 1.23.22 2.759.118 3.36-.06.373-.477 1.483-.89 2.338a28.941 28.941 0 0 1-.794 1.521 1.808 1.808 0 0 0-.071 1.864 1.796 1.796 0 0 0 3.18-.068s.447-.762.92-1.74c.472-.975 1.005-2.103 1.207-3.324.237-1.447.065-3.025-.104-4.387a38.894 38.894 0 0 0-.386-2.466A1.799 1.799 0 0 0 83.62 8.93l-.001-.007z"/>
    <path d="M91.768 4.302a1.795 1.795 0 0 0-1.287.687 1.808 1.808 0 0 0-.355 1.419s.176 1.165.258 2.599c.083 1.434-.036 3.183-.244 3.733-.341.898-1.769 2.709-3.11 4.063-1.34 1.355-2.548 2.36-2.548 2.36a1.806 1.806 0 0 0 .478 3.144c.625.222 1.321.08 1.81-.369 0 0 1.332-1.1 2.808-2.592 1.477-1.491 3.145-3.272 3.924-5.331.646-1.711.563-3.586.47-5.212a35.49 35.49 0 0 0-.294-2.951 1.799 1.799 0 0 0-1.91-1.55z"/>
    <path d="M100.296.309c-.539.029-1.035.3-1.354.736a1.808 1.808 0 0 0-.288 1.517s.219.909.393 2.043c.176 1.134.237 2.55.147 2.986-.444 2.179-1.75 4.376-3.376 6.156-.921 1.008-3.116 2.528-4.998 3.655-1.881 1.127-3.46 1.93-3.46 1.93a1.805 1.805 0 1 0-.185 3.131 1.792 1.792 0 0 0 1.806.087s1.687-.859 3.685-2.056c1.999-1.197 4.293-2.663 5.798-4.31 1.96-2.146 3.627-4.83 4.247-7.867.298-1.472.086-2.971-.112-4.269a30.739 30.739 0 0 0-.456-2.338 1.798 1.798 0 0 0-1.846-1.401h-.001zM84.075 35.58a.898.898 0 0 0-.821.444.904.904 0 0 0 .014.937s2.608 4.436 3.285 6.571c.567 1.792.858 3.702.856 5.585-.003 2.381-.22 4.79-1.06 6.874-.865 2.149-2.344 4.123-4.057 5.769-.677.65-2.063 1.565-3.243 2.26-1.18.695-2.155 1.198-2.155 1.198a.902.902 0 1 0 .815 1.606s1.026-.532 2.253-1.254c1.227-.723 2.652-1.617 3.58-2.508 1.858-1.784 3.49-3.944 4.478-6.395.977-2.427 1.183-5.065 1.186-7.55.002-2.07-.316-4.16-.94-6.135-.847-2.667-3.454-6.951-3.454-6.951a.898.898 0 0 0-.737-.45z"/>
  </g>
</svg>